HIERARCHY
ROOT root
{
	OFFSET	0	13.1	24.9
	CHANNELS 6  Xposition Yposition Zposition Xrotation Yrotation Zrotation
	JOINT spine_1
	{
		OFFSET	0	9.99999	0
		CHANNELS 3  Xrotation Yrotation Zrotation
		JOINT spine_2
		{
			OFFSET	0	112	-10
			CHANNELS 3  Xrotation Yrotation Zrotation
			JOINT spine_3
			{
				OFFSET	0	206.5	19.3
				CHANNELS 3  Xrotation Yrotation Zrotation
				JOINT spine_4
				{
					OFFSET	0	110.4	14.6
					CHANNELS 3  Xrotation Yrotation Zrotation
					JOINT neck_1
					{
						OFFSET	0	71.8	-50.3
						CHANNELS 3  Xrotation Yrotation Zrotation
						JOINT neck_2
						{
							OFFSET	0	86.2	-25.8
							CHANNELS 3  Xrotation Yrotation Zrotation
							JOINT head_ee
							{
								OFFSET	0	179.8	-8.7
								CHANNELS 3  Xrotation Yrotation Zrotation
								End Site
								{
									OFFSET	1	0	0
								}
							}
						}
					}
					JOINT left_clavicle
					{
						OFFSET	-43.2	22.4	-70.8
						CHANNELS 3  Xrotation Yrotation Zrotation
						JOINT left_shoulder
						{
							OFFSET	-93.9	-5.79999	48.7
							CHANNELS 3  Xrotation Yrotation Zrotation
							JOINT left_elbow
							{
								OFFSET	-291.4	-30.8	15.2
								CHANNELS 3  Xrotation Yrotation Zrotation
								JOINT left_lowarm_twist
								{
									OFFSET	-110.7	-3.89999	13.6
									CHANNELS 3  Xrotation Yrotation Zrotation
									JOINT left_hand
									{
										OFFSET	-110.7	-3.89999	13.6
										CHANNELS 3  Xrotation Yrotation Zrotation
										JOINT left_ee
										{
											OFFSET	-80.8	-5.10001	12.1
											CHANNELS 3  Xrotation Yrotation Zrotation
											End Site
											{
												OFFSET	1	0	0
											}
										}
									}
								}
							}
						}
					}
					JOINT right_clavicle
					{
						OFFSET	43.2	22.4	-70.8
						CHANNELS 3  Xrotation Yrotation Zrotation
						JOINT right_shoulder
						{
							OFFSET	93.9	-5.79999	48.7
							CHANNELS 3  Xrotation Yrotation Zrotation
							JOINT right_elbow
							{
								OFFSET	291.4	-30.8	15.2
								CHANNELS 3  Xrotation Yrotation Zrotation
								JOINT right_lowarm_twist
								{
									OFFSET	110.7	-3.89999	13.6
									CHANNELS 3  Xrotation Yrotation Zrotation
									JOINT right_hand
									{
										OFFSET	110.7	-3.89999	13.6
										CHANNELS 3  Xrotation Yrotation Zrotation
										JOINT right_ee
										{
											OFFSET	80.8	-5.10001	12.1
											CHANNELS 3  Xrotation Yrotation Zrotation
											End Site
											{
												OFFSET	1	0	0
											}
										}
									}
								}
							}
						}
					}
				}
			}
		}
	}
	JOINT left_hip
	{
		OFFSET	-82.8	-127.5	0.300001
		CHANNELS 3  Xrotation Yrotation Zrotation
		JOINT left_knee
		{
			OFFSET	-28.2	-396.7	2.2
			CHANNELS 3  Xrotation Yrotation Zrotation
			JOINT left_ankle
			{
				OFFSET	-11.7	-411.3	35.4
				CHANNELS 3  Xrotation Yrotation Zrotation
				JOINT left_toes
				{
					OFFSET	0	-60	-88.6
					CHANNELS 3  Xrotation Yrotation Zrotation
					JOINT left_foot_ee
					{
						OFFSET	-22.5	-16.5	-42.2
						CHANNELS 3  Xrotation Yrotation Zrotation
						End Site
						{
							OFFSET	1	0	0
						}
					}
				}
			}
		}
	}
	JOINT right_hip
	{
		OFFSET	82.8	-127.5	0.300001
		CHANNELS 3  Xrotation Yrotation Zrotation
		JOINT right_knee
		{
			OFFSET	28.2	-396.7	2.2
			CHANNELS 3  Xrotation Yrotation Zrotation
			JOINT right_ankle
			{
				OFFSET	11.7	-411.3	35.4
				CHANNELS 3  Xrotation Yrotation Zrotation
				JOINT right_toes
				{
					OFFSET	0	-60	-88.6
					CHANNELS 3  Xrotation Yrotation Zrotation
					JOINT right_foot_ee
					{
						OFFSET	22.5	-16.5	-42.2
						CHANNELS 3  Xrotation Yrotation Zrotation
						End Site
						{
							OFFSET	1	0	0
						}
					}
				}
			}
		}
	}
}
MOTION
Frames: 8
Frame Time: 0.02
1372.05 701.618 -1475.22 -34.3364673705 2.04363665019 -0.382988197047 12.3641 0.755457 2.75554 12.3682 0.578654 2.79798 12.3841 0.591627 2.79527 12.3747 1.02551 2.6669 -13.6387 6.61219 -9.73921 -13.6122 18.5971 -7.2495 -0.0 0.0 -0.0 -2.44694 22.1948 -0.865659 -16.9118 -28.0269 57.0281 3.35461 -58.9481 1.89631 -6.52328 -0.274998 0.786809 -1.3537 -9.70171 -13.378 -0.0 0.0 -0.0 11.6534 0.558225 -23.1601 87.1102 -65.6408 31.4818 0.348618 9.79826 -0.0298818 71.3066 2.87706 8.04585 -0.204533 27.1068 12.8085 0.0 0.0 0.0 7.68151 61.9157 20.4477 -10.8565 0.292554 1.63794 40.1256 -5.67752 -4.95288 -14.6572 0.0 0.0 -0.0 0.0 -0.0 75.2754 25.4404 -13.4944 -16.0595 -0.321747 -2.43545 -6.92264 11.028 -1.09094 -37.6338 0.0 0.0 0.0 0.0 0.0 
1372.05 701.618 -1475.22 -34.3348983596 1.978216608 -0.427701983025 12.3641 0.755457 2.75554 12.3682 0.578654 2.79798 12.3841 0.591627 2.79527 12.3747 1.02551 2.6669 -13.6387 6.61219 -9.73921 -13.6122 18.5971 -7.2495 -0.0 0.0 -0.0 -2.44694 22.1948 -0.865659 -16.9118 -28.0269 57.0281 3.35461 -58.9481 1.89631 -6.52328 -0.274998 0.786809 -1.3537 -9.70171 -13.378 -0.0 0.0 -0.0 11.6534 0.558225 -23.1601 87.1102 -65.6408 31.4818 0.348618 9.79826 -0.0298818 71.3066 2.87706 8.04585 -0.204533 27.1068 12.8085 0.0 0.0 0.0 7.68151 61.9157 20.4477 -10.8565 0.292554 1.63794 40.1256 -5.67752 -4.95288 -14.6572 0.0 0.0 -0.0 0.0 -0.0 75.2754 25.4404 -13.4944 -16.0595 -0.321747 -2.43545 -6.92264 11.028 -1.09094 -37.6338 0.0 0.0 0.0 0.0 0.0 
1372.05 701.618 -1475.22 -34.3243867147 1.46630378365 -0.777449203033 12.3641 0.755457 2.75554 12.3682 0.578654 2.79798 12.3841 0.591627 2.79527 12.3747 1.02551 2.6669 -13.6387 6.61219 -9.73921 -13.6122 18.5971 -7.2495 -0.0 0.0 -0.0 -2.44694 22.1948 -0.865659 -16.9118 -28.0269 57.0281 3.35461 -58.9481 1.89631 -6.52328 -0.274998 0.786809 -1.3537 -9.70171 -13.378 -0.0 0.0 -0.0 11.6534 0.558225 -23.1601 87.1102 -65.6408 31.4818 0.348618 9.79826 -0.0298818 71.3066 2.87706 8.04585 -0.204533 27.1068 12.8085 0.0 0.0 0.0 7.68151 61.9157 20.4477 -10.8565 0.292554 1.63794 40.1256 -5.67752 -4.95288 -14.6572 0.0 0.0 -0.0 0.0 -0.0 75.2754 25.4404 -13.4944 -16.0595 -0.321747 -2.43545 -6.92264 11.028 -1.09094 -37.6338 0.0 0.0 0.0 0.0 0.0 
1351.23277962 701.218 -1500.53959638 -33.7608888792 2.3066651809 0.0333352966443 12.356 0.783992 2.40186 12.359 0.629614 2.44685 12.3766 0.640605 2.44399 12.3697 1.01845 2.31226 -13.045 5.3011 -10.2971 -12.9117 16.5349 -8.29263 -0.0 0.0 -0.0 -2.71638 23.918 -0.919044 -19.2743 -29.807 57.9708 3.3556 -58.9555 1.89716 -11.983 -0.57286 1.4182 -1.1026 -12.1737 -12.7038 -0.0 0.0 -0.0 12.134 6.94164 -24.5297 90.1335 -65.6974 33.1399 0.280572 7.91288 -0.0194053 71.0648 2.8516 8.02812 -0.51012 28.4434 15.3439 0.0 0.0 0.0 7.43997 56.3309 20.2226 -11.2946 0.297803 1.70497 40.1876 -3.81703 -4.93101 -7.12565 0.0 0.0 -0.0 0.0 -0.0 74.996 26.6658 -13.4296 -20.4043 -0.290613 -3.10119 -0.932859 4.46829 -0.140367 -33.6857 0.0 0.0 0.0 0.0 0.0 
1338.04949242 706.863 -1541.03892972 -33.0809675542 4.82930932246 0.401626076393 11.9402 0.875699 2.75696 11.9442 0.698563 2.80705 11.9666 0.691259 2.80885 11.9574 1.12604 2.66459 -14.1269 6.13781 -10.1041 -14.0794 17.8553 -7.67299 -0.0 0.0 -0.0 -2.51034 24.4678 -0.537921 -21.6714 -26.5949 57.3859 2.96647 -55.7534 1.56938 -20.3099 -1.13957 2.31995 0.216218 -18.9991 -6.63735 -0.0 0.0 -0.0 12.4127 10.4681 -25.2135 88.3633 -70.0115 28.6621 0.308193 8.6805 -0.023391 74.7283 3.24519 8.28512 -1.25242 20.3721 17.1462 0.0 0.0 0.0 9.89851 51.4089 17.2732 -16.7346 0.320224 2.539 38.5912 -4.63241 -4.80287 -1.73399 0.0 0.0 -0.0 0.0 -0.0 70.2263 26.2027 -12.1359 -18.2064 -0.312673 -2.7647 -2.75655 -0.28953 -0.410111 -25.8112 0.0 0.0 0.0 0.0 0.0 
1338.76493145 706.863 -1541.40361003 -33.0538865286 4.30883528808 0.0616766092453 11.9402 0.875699 2.75696 11.9442 0.698563 2.80705 11.9666 0.691259 2.80885 11.9574 1.12604 2.66459 -14.1269 6.13781 -10.1041 -14.0794 17.8553 -7.67299 -0.0 0.0 -0.0 -2.51034 24.4678 -0.537921 -21.6714 -26.5949 57.3859 2.96647 -55.7534 1.56938 -20.3099 -1.13957 2.31995 0.216218 -18.9991 -6.63735 -0.0 0.0 -0.0 12.4127 10.4681 -25.2135 88.3633 -70.0115 28.6621 0.308193 8.6805 -0.023391 74.7283 3.24519 8.28512 -1.25242 20.3721 17.1462 0.0 0.0 0.0 9.89851 51.4089 17.2732 -16.7346 0.320224 2.539 38.5912 -4.63241 -4.80287 -1.73399 0.0 0.0 -0.0 0.0 -0.0 70.2263 26.2027 -12.1359 -18.2064 -0.312673 -2.7647 -2.75655 -0.28953 -0.410111 -25.8112 0.0 0.0 0.0 0.0 0.0 
1293.65791899 709.356 -1610.2329943 -28.0014835206 10.2407192188 1.32310487554 10.1089 0.592964 2.63357 10.1127 0.424242 2.66594 10.1235 0.330912 2.67911 10.1143 0.749734 2.59333 -14.1473 8.93567 -8.59228 -14.3296 22.2545 -5.28247 -0.0 0.0 -0.0 -2.43508 22.678 -0.761432 -21.673 -18.991 63.9286 2.03731 -45.2578 0.849332 -36.2718 -2.56368 3.78025 0.732103 -28.6911 -7.41799 -0.0 0.0 -0.0 13.6753 20.9488 -27.7546 84.2694 -74.3918 20.056 0.332461 9.35238 -0.0271943 78.5234 3.66938 8.52435 -1.19706 18.9377 16.1835 0.0 0.0 0.0 17.4512 36.0939 9.48927 -35.8474 -0.223932 5.40822 29.602 -2.72863 -3.89205 15.087 -0.0 -0.0 -0.0 0.0 -0.0 63.1946 21.5327 -9.32153 -30.4683 -0.0258432 -4.621 7.67616 -6.79671 1.09982 -9.83791 0.0 0.0 0.0 0.0 0.0 
1296.44366274 709.356 -1611.8124916 -27.9070936882 9.20256350162 0.764154903639 10.1089 0.592964 2.63357 10.1127 0.424242 2.66594 10.1235 0.330912 2.67911 10.1143 0.749734 2.59333 -14.1473 8.93567 -8.59228 -14.3296 22.2545 -5.28247 -0.0 0.0 -0.0 -2.43508 22.678 -0.761432 -21.673 -18.991 63.9286 2.03731 -45.2578 0.849332 -36.2718 -2.56368 3.78025 0.732103 -28.6911 -7.41799 -0.0 0.0 -0.0 13.6753 20.9488 -27.7546 84.2694 -74.3918 20.056 0.332461 9.35238 -0.0271943 78.5234 3.66938 8.52435 -1.19706 18.9377 16.1835 0.0 0.0 0.0 17.4512 36.0939 9.48927 -35.8474 -0.223932 5.40822 29.602 -2.72863 -3.89205 15.087 -0.0 -0.0 -0.0 0.0 -0.0 63.1946 21.5327 -9.32153 -30.4683 -0.0258432 -4.621 7.67616 -6.79671 1.09982 -9.83791 0.0 0.0 0.0 0.0 0.0 
